<svg xmlns="http://www.w3.org/2000/svg" viewBox="0 0 65.58 15.43"><defs><style>.cls-1{fill:#db6b60;}.cls-2{fill:#ec7c6f;}</style></defs><g id="Layer_2" data-name="Layer 2"><g id="Barb-Mouth_Closed" data-name="Barb-Mouth Closed"><g id="Barb-Mouth_Closed-2" data-name="Barb-Mouth Closed"><path class="cls-1" d="M0,8.54C2,6.74,9.79-.11,21,.32A27.51,27.51,0,0,1,31.76,3,27.87,27.87,0,0,1,44.88,0C56.56.28,64,8.11,65.58,9.81q-13.92.34-28.76.15C24.05,9.79,11.76,9.29,0,8.54Z"/><path class="cls-2" d="M0,8.54c.66.29,1.66.72,2.89,1.22,0,0,4.37,1.78,8,3,7.56,2.44,20.19,2.68,21.12,2.69,2.24,0,13,.13,20.92-1.86,1.28-.32,5.64-1.5,10.93-3.2l1.67-.54Z"/></g></g></g></svg>