<svg xmlns="http://www.w3.org/2000/svg" viewBox="0 0 61.83 26.4"><defs><style>.cls-1{fill:#8f463f;}.cls-2{fill:#fff;}.cls-3{fill:#ec7c6f;}.cls-4{fill:#db6b60;}</style></defs><g id="Layer_2" data-name="Layer 2"><g id="Barb-Mouth_Slightly_Open" data-name="Barb-Mouth Slightly Open"><g id="Barb-Mouth_Slightly_Open-2" data-name="Barb-Mouth Slightly Open"><path class="cls-1" d="M13,4.73C10.3,5.86,6.55,7.52,2.15,9.83a40.61,40.61,0,0,0,7,6.09A40.86,40.86,0,0,0,33.1,23.05c15.55-.49,25.45-10.33,27.54-12.5A31.92,31.92,0,0,0,31.35,4.84,17.13,17.13,0,0,0,21.91,2.1C20.42,2.14,18.64,2.41,13,4.73Z"/><path class="cls-2" d="M7.62,8.47c0,.89,1.25,1.72,2,2.19a9.21,9.21,0,0,0,4.82,1.2,20,20,0,0,0,4.49-.22,19.09,19.09,0,0,0,2.18,1c3.28,1.28,5.38,1.07,10.63,1.2,7.45.18,9.8.76,13.61-.83a16.5,16.5,0,0,0,1.52-.72,10.69,10.69,0,0,0,6.35-.22,10.37,10.37,0,0,0,3.72-2.3,79.83,79.83,0,0,0-17-5A65.34,65.34,0,0,0,17,4.63C15.34,4.94,7.69,6.32,7.62,8.47Z"/><path class="cls-2" d="M11.1,15.26c.36-.89,4.3.48,10.32,1.29,16.45,2.24,29.15-2.27,29.93.24.09.3,0,.8-.71,1.61a20.36,20.36,0,0,1-6.23,4.92c-8.7,4.38-18.07.73-22.33-.93C16.34,20.15,10.64,16.4,11.1,15.26Z"/><path class="cls-3" d="M0,9.8A36.48,36.48,0,0,0,13.41,22.13a37.4,37.4,0,0,0,17.33,4.24c4.36.11,14.12.36,22.88-6.22a31.13,31.13,0,0,0,8.21-9.32l-4.34-.29a30.78,30.78,0,0,1-5.6,5.51A33.36,33.36,0,0,1,31.15,22.4C16.92,22.06,7,12.94,6,10.66a2.64,2.64,0,0,0-.82-1.09C3.91,8.57,1.8,9.07,0,9.8Z"/><path class="cls-4" d="M0,9.8a30.49,30.49,0,0,1,3.34-3A31.76,31.76,0,0,1,20.28.39,19.53,19.53,0,0,1,31,3.08a22.51,22.51,0,0,1,13.12-3,23,23,0,0,1,12.5,5.23,25.63,25.63,0,0,1,5.18,5.52h0a49.28,49.28,0,0,1-6.15-.5c-2.72-.67-2.9-1.77-5.66-3a17.08,17.08,0,0,0-7.89-1.24c-4.71.21-7.32,2.09-11.26,1.8C27.18,7.64,26.56,6.6,24.76,6a11.2,11.2,0,0,0-2.14-.38c-2.68-.21-7.7,1-12.72,3.67A10.17,10.17,0,0,1,6,10.66a12.24,12.24,0,0,1-3.2-.13A14.8,14.8,0,0,1,0,9.8Z"/></g></g></g></svg>