<svg xmlns="http://www.w3.org/2000/svg" viewBox="0 0 51.31 32.21"><defs><style>.cls-1{fill:#8f463f;}.cls-2{fill:#da5a60;}.cls-3{fill:#fff;}.cls-4{fill:#ec7c6f;}.cls-5{fill:#db6b60;}</style></defs><g id="Layer_2" data-name="Layer 2"><g id="Barb-Mouth_Open" data-name="Barb-Mouth Open"><g id="Barb-Mouth_Open-2" data-name="Barb-Mouth Open"><path class="cls-1" d="M10.81,5.53a98.78,98.78,0,0,0-9,6.63,44.34,44.34,0,0,0,5.84,7.92c2.85,3.05,10.11,9.76,19.84,9.28,12.9-.63,21.12-13.44,22.85-16.27-2-2.48-6.55-7.48-13.2-8.85A17.53,17.53,0,0,0,26,5.67C24.45,4.14,21.67,2,18.19,2.1,17,2.15,15.47,2.5,10.81,5.53Z"/><path class="cls-2" d="M17.56,23.54c-.17-.87,3.31-2.43,6.29-2.8,4.49-.55,9,1.47,8.85,2.45C32.48,24.9,17.88,25.25,17.56,23.54Z"/><path class="cls-3" d="M6.32,8.47c0,.89,1,1.72,1.64,2.19a6.65,6.65,0,0,0,4,1.2,13.81,13.81,0,0,0,3.73-.22,13.85,13.85,0,0,0,1.81,1c2.72,1.28,4.45,1.07,8.82,1.2,6.18.18,8.13.76,11.29-.83a12.65,12.65,0,0,0,1.26-.72,7.44,7.44,0,0,0,5.27-.22,8.54,8.54,0,0,0,3.09-2.3,57.94,57.94,0,0,0-14.09-5,45.14,45.14,0,0,0-19-.11C12.73,4.94,6.38,6.32,6.32,8.47Z"/><path class="cls-3" d="M13.3,23.94a.4.4,0,0,1,.07-.16c1-2.11,6.22-.94,13.29-1.37,0,0,9.86-.59,10.76.59a1.69,1.69,0,0,1,.2.38A2.25,2.25,0,0,1,37.34,25a7.91,7.91,0,0,1-2.12,2.78c-2,1.55-5.19,1.9-10.16,2.21-7.11.43-8.1.19-9.07-.55C14,28,13,25.14,13.3,23.94Z"/><path class="cls-4" d="M0,9.8A26.13,26.13,0,0,0,4.62,21.72,25.74,25.74,0,0,0,12.55,29c9.25,5.28,23.35,4.23,31.85-4.36a26.12,26.12,0,0,0,6.91-13.8l-3.6-.29A20.23,20.23,0,0,1,42.41,20C32.87,29.32,13,27.75,7,18.15a14.1,14.1,0,0,1-2-7.49,2.28,2.28,0,0,0-.68-1.09C3.36,8.73,1.62,8.8,0,9.8Z"/><path class="cls-5" d="M0,9.8a26.67,26.67,0,0,1,2.78-3A24,24,0,0,1,16.83.39c1.94-.14,5,.12,8.92,2.69a16.28,16.28,0,0,1,10.89-3A17.67,17.67,0,0,1,47,5.31a24.22,24.22,0,0,1,4.3,5.52h0a34.07,34.07,0,0,1-5.1-.5c-2.26-.67-2.41-1.77-4.7-3A12,12,0,0,0,35,6.12c-3.91.21-6.07,2.09-9.34,1.8C22.56,7.64,22,6.6,20.54,6a7.79,7.79,0,0,0-1.77-.38c-2.22-.21-6.39,1-10.55,3.67A7.61,7.61,0,0,1,5,10.66a8.41,8.41,0,0,1-2.65-.13A10.61,10.61,0,0,1,0,9.8Z"/></g></g></g></svg>