<svg xmlns="http://www.w3.org/2000/svg" viewBox="0 0 51.31 38.46"><defs><style>.cls-1{fill:#8f463f;}.cls-2{fill:#da5a60;}.cls-3{fill:#fff;}.cls-4{fill:#ec7c6f;}.cls-5{fill:#db6b60;}</style></defs><g id="Layer_2" data-name="Layer 2"><g id="Barb-Mouth_Open_Wide" data-name="Barb-Mouth Open Wide"><g id="Barb-Mouth_Open_Wide-2" data-name="Barb-Mouth Open Wide"><path class="cls-1" d="M10.81,8.12a100.6,100.6,0,0,0-9,7.38,49.37,49.37,0,0,0,5.84,8.81c2.85,3.38,10.11,10.85,19.84,10.32,12.9-.71,21.12-15,22.85-18.1-2-2.76-6.55-8.32-13.2-9.84A16,16,0,0,0,26,8.28c-1.57-1.7-4.35-4.13-7.83-4C17,4.37,15.47,4.76,10.81,8.12Z"/><path class="cls-2" d="M17.56,27.76c-.17-.88,3.31-2.44,6.29-2.8,4.49-.55,9,1.47,8.85,2.45C32.48,29.11,17.88,29.47,17.56,27.76Z"/><path class="cls-3" d="M4.32,9.89c.35.9,2.61,1.21,3.47,1.33a9.22,9.22,0,0,0,4.6-.54L18.78,8a52.26,52.26,0,0,0,9.06,1.05,52,52,0,0,0,6.75-.25,26.73,26.73,0,0,0,3,1.45c3.06,1.25,5.39,2.2,7.19,1.51,2.11-.82,2.39-3.5,2.43-4.09a67.67,67.67,0,0,0-14.09-4c-5.69-1-12.09-2.09-19-.09C8.85,5.1,3.73,8.33,4.32,9.89Z"/><path class="cls-3" d="M15,28c1.41-1.69,3.33-.85,11.11-1,5.43-.08,8.15-.55,9.5,1.24a2.82,2.82,0,0,1,.57,2.28c-.31,1-1.51,1.47-3.2,2-3.83,1.22-5.75,1.83-8,2a32.57,32.57,0,0,1-6.71-.34c-2.45-.27-3.15-.5-3.63-1.08C13.62,31.86,13.82,29.38,15,28Z"/><path class="cls-4" d="M0,12.15a34.17,34.17,0,0,0,4.62,14,28.15,28.15,0,0,0,7.93,8.53,24.1,24.1,0,0,0,24.58.81,25.5,25.5,0,0,0,7.27-5.93A29.79,29.79,0,0,0,51.31,13l-4.17-.35a17.87,17.87,0,0,1-1.2,5.8,18.13,18.13,0,0,1-3.53,5.64,24.58,24.58,0,0,1-17.19,8.43C18.2,32.51,10.53,28.84,7,22a18.78,18.78,0,0,1-2-8.8,2.76,2.76,0,0,0-.68-1.28C3.36,10.89,1.62,11,0,12.15Z"/><path class="cls-5" d="M0,12A35.77,35.77,0,0,1,2.78,9C5.36,6.51,10,2,16.93.5a23.45,23.45,0,0,1,9.94.06,19.76,19.76,0,0,1,9.69.13C41.72,2.11,44.91,5.39,47,7.52A30.15,30.15,0,0,1,51.31,13a10.13,10.13,0,0,1-4.17-.35c-3.07-.95-3.56-2.85-7.32-5.33-2.08-1.38-4-2.65-6.67-2.84s-3.32.89-6.69,1.09c-3.84.22-3.83-1.15-6.83-1C14.82,5,9.55,8.83,7.57,11.11A4.85,4.85,0,0,1,5,12.87a6.32,6.32,0,0,1-2.65-.13A10.61,10.61,0,0,1,0,12Z"/></g></g></g></svg>