<svg xmlns="http://www.w3.org/2000/svg" viewBox="0 0 51.31 29.45"><defs><style>.cls-1{fill:#8f463f;}.cls-2{fill:#da5a60;}.cls-3{fill:#fff;}.cls-4{fill:#ec7c6f;}.cls-5{fill:#db6b60;}</style></defs><g id="Layer_2" data-name="Layer 2"><g id="Barb-Mouth_Slightly_Rounded" data-name="Barb-Mouth Slightly Rounded"><g id="Barb-Mouth_Slightly_Rounded-2" data-name="Barb-Mouth Slightly Rounded"><path class="cls-1" d="M10.81,5.53a98.78,98.78,0,0,0-9,6.63,44.34,44.34,0,0,0,5.84,7.92c2.85,3.05,10.11,9.76,19.84,9.28,12.9-.63,21.12-13.44,22.85-16.27-2-2.48-6.55-7.48-13.2-8.85A17.53,17.53,0,0,0,26,5.67C24.45,4.14,21.67,2,18.19,2.1,17,2.15,15.47,2.5,10.81,5.53Z"/><path class="cls-2" d="M17.56,21.54c-.17-.87,3.31-2.43,6.29-2.8,4.49-.55,9,1.47,8.85,2.45C32.48,22.9,17.88,23.25,17.56,21.54Z"/><path class="cls-3" d="M6.32,8.47c0,.89,1,1.72,1.64,2.19a6.65,6.65,0,0,0,4,1.2,13.81,13.81,0,0,0,3.73-.22,13.85,13.85,0,0,0,1.81,1c2.72,1.28,4.45,1.07,8.82,1.2,6.18.18,8.13.76,11.29-.83a12.65,12.65,0,0,0,1.26-.72,7.44,7.44,0,0,0,5.27-.22,8.54,8.54,0,0,0,3.09-2.3,57.94,57.94,0,0,0-14.09-5,45.14,45.14,0,0,0-19-.11C12.73,4.94,6.38,6.32,6.32,8.47Z"/><path class="cls-3" d="M8.61,19.26a.63.63,0,0,1,.1-.16c.92-1.18,4-.12,4.93.17A41.84,41.84,0,0,0,25.23,20.8a59.22,59.22,0,0,0,13.35-1.86c.56-.17,2.59-.84,3.47.06a1.42,1.42,0,0,1,.25.38A1.81,1.81,0,0,1,41.78,21a9.7,9.7,0,0,1-3.15,2.72c-2.88,1.49-7.33,1.75-14.22,1.92-9.88.24-11.22,0-12.5-.8C9.31,23.31,8.08,20.45,8.61,19.26Z"/><path class="cls-4" d="M0,9.65a20.49,20.49,0,0,0,2.84,8.81,21.1,21.1,0,0,0,4.62,5.33A25,25,0,0,0,19.67,29a32.83,32.83,0,0,0,7.8.36C28.53,29.29,41,28.29,47,21a21,21,0,0,0,2.21-3.31,19,19,0,0,0,2.06-7.17l-3.6-.24a13.33,13.33,0,0,1-2.48,6.4c-4.13,5.51-11.75,5.64-18.57,5.76s-16.81.29-20.41-6A10.72,10.72,0,0,1,5,10.35a1.86,1.86,0,0,0-.68-.89C3.36,8.77,1.62,8.83,0,9.65Z"/><path class="cls-5" d="M0,9.8a26.67,26.67,0,0,1,2.78-3A24,24,0,0,1,16.83.39c1.94-.14,5,.12,8.92,2.69a16.28,16.28,0,0,1,10.89-3A17.67,17.67,0,0,1,47,5.31a24.22,24.22,0,0,1,4.3,5.52h0a34.07,34.07,0,0,1-5.1-.5c-2.26-.67-2.41-1.77-4.7-3A12,12,0,0,0,35,6.12c-3.91.21-6.07,2.09-9.34,1.8C22.56,7.64,22,6.6,20.55,6a8.14,8.14,0,0,0-1.78-.38c-2.22-.21-6.39,1-10.55,3.67A7.61,7.61,0,0,1,5,10.66a8.41,8.41,0,0,1-2.65-.13A10.61,10.61,0,0,1,0,9.8Z"/></g></g></g></svg>