<svg xmlns="http://www.w3.org/2000/svg" viewBox="0 0 65.58 17.65"><defs><style>.cls-1{fill:#db6b60;}.cls-2{fill:#ec7c6f;}.cls-3{fill:#63342e;}</style></defs><g id="Layer_2" data-name="Layer 2"><g id="Barb-Mouth_transition_1" data-name="Barb-Mouth transition 1"><g id="Barb-Mouth_transition_1-2" data-name="Barb-Mouth transition 1"><path class="cls-1" d="M0,8.54C2,6.74,9.79-.11,21,.32A27.51,27.51,0,0,1,31.76,3,27.87,27.87,0,0,1,44.88,0,29.14,29.14,0,0,1,62.64,7a28.65,28.65,0,0,1,2.94,2.82c-9.45.4-19.38.56-29.75.42C23.22,10.06,11.25,9.45,0,8.54Z"/><path class="cls-2" d="M0,8.54a24.29,24.29,0,0,0,5.24,5.1c6.07,4.3,11.31,3.62,26.82,3.77,18.69.19,25.5,1.34,30.86-4a15.73,15.73,0,0,0,2.66-3.56c-10.21.45-21.06.64-32.47.42C21.45,10,10.39,9.41,0,8.54Z"/><path class="cls-3" d="M12.41,9.44c0-.64,40.28,0,40.28.68,0,.34-11,.79-20.9.59C22.9,10.53,12.4,9.77,12.41,9.44Z"/></g></g></g></svg>