<svg xmlns="http://www.w3.org/2000/svg" viewBox="0 0 61.83 23.76"><defs><style>.cls-1{fill:#8f463f;}.cls-2{fill:#ec7c6f;}.cls-3{fill:#fff;}.cls-4{fill:#db6b60;}</style></defs><g id="Layer_2" data-name="Layer 2"><g id="Barb-Upper_teeth_touching_Lower_lip" data-name="Barb-Upper teeth touching Lower lip"><g id="Barb-Upper_teeth_touching_lower_lip-2" data-name="Barb-Upper teeth touching lower lip"><path class="cls-1" d="M13,4.49C10.3,5.51,6.55,7,2.15,9.11a40,40,0,0,0,7,5.53A43.84,43.84,0,0,0,33.1,21.11,42.63,42.63,0,0,0,60.64,9.76,34.08,34.08,0,0,0,44.73,3.59a35.19,35.19,0,0,0-13.38,1A18.4,18.4,0,0,0,21.91,2.1C20.42,2.13,18.64,2.38,13,4.49Z"/><path class="cls-2" d="M0,9.8c3,7.87,7.07,11.28,10.4,12.88,5.9,2.82,7.55-.9,21.36.18,5.86.46,12.49,1.67,19.49-.52a15.2,15.2,0,0,0,4.18-2,17.11,17.11,0,0,0,6.4-9.52l-4.34-.29c-1.87,3.59-4,5-5.6,5.51-3.34,1.13-4.89-1-12.25-1.78a49.78,49.78,0,0,0-9.57,0c-1.72.14-1.82.23-6.86.9-8.26,1.1-9,1-9.7.78C11.28,15.3,7.38,13.37,6,10.66a2.76,2.76,0,0,0-.82-1.09C3.91,8.57,1.81,9.07,0,9.8Z"/><path class="cls-3" d="M7.62,8.47c0,.89,1.25,1.72,2,2.19,1.46.94,2.8,1,4.82,1.2,1.39.15,3.42.4,6,.85a25,25,0,0,0,7.89,2.59,29.1,29.1,0,0,0,8.54-.13A30,30,0,0,0,45.32,13c.63-.27,1.15-.53,1.52-.72a10.69,10.69,0,0,0,6.35-.22,10.52,10.52,0,0,0,3.73-2.3,80.06,80.06,0,0,0-17-5A65.34,65.34,0,0,0,17,4.63C15.34,4.94,7.69,6.32,7.62,8.47Z"/><path class="cls-4" d="M0,9.8a30.49,30.49,0,0,1,3.34-3A31.76,31.76,0,0,1,20.28.39,19.53,19.53,0,0,1,31,3.08a22.51,22.51,0,0,1,13.12-3,23,23,0,0,1,12.5,5.23,25.63,25.63,0,0,1,5.18,5.52h0a49.28,49.28,0,0,1-6.15-.5c-2.72-.67-2.9-1.77-5.66-3a17.08,17.08,0,0,0-7.89-1.24c-4.71.21-7.32,2.09-11.26,1.8C27.18,7.64,26.56,6.6,24.76,6a11.2,11.2,0,0,0-2.14-.38c-2.68-.21-7.7,1-12.72,3.67A10.17,10.17,0,0,1,6,10.66a12.24,12.24,0,0,1-3.2-.13A14.8,14.8,0,0,1,0,9.8Z"/></g></g></g></svg>