<svg xmlns="http://www.w3.org/2000/svg" viewBox="0 0 65.58 15.45"><defs><style>.cls-1{fill:#db6b60;}.cls-2{fill:#ec7c6f;}</style></defs><g id="Layer_2" data-name="Layer 2"><g id="Barb-Mouth_Idle_Position" data-name="Barb-Mouth Idle Position"><g id="Barb-Mouth_Idle_Position-2" data-name="Barb-Mouth Idle Position"><path class="cls-1" d="M0,8.54C2,6.74,9.79-.11,21,.32A27.51,27.51,0,0,1,31.76,3,27.87,27.87,0,0,1,44.88,0C56.56.28,64,8.11,65.58,9.81q-13.92.34-28.76.15C24.05,9.79,11.76,9.29,0,8.54Z"/><path class="cls-2" d="M0,8.54a39.59,39.59,0,0,0,5.24,3.1c5.17,2.54,10.08,3.54,26.82,3.77,19,.26,24.92-.86,30.86-4,1.14-.61,2-1.17,2.66-1.56Z"/></g></g></g></svg>